<svg xmlns="http://www.w3.org/2000/svg"
     xmlns:xlink="http://www.w3.org/1999/xlink"
     width="500"
     zoomAndPan="magnify"
     viewBox="0 0 375 374.999991"
     height="500"
     preserveAspectRatio="xMidYMid meet"
     version="1.2">
    <defs>
        <clipPath id="a0dfaa21af">
            <path d="M 16 28.636719 L 375 28.636719 L 375 161 L 16 161 Z M 16 28.636719 " />
        </clipPath>
        <clipPath id="69a5148ed8">
            <path d="M 16 153 L 320 153 L 320 346.636719 L 16 346.636719 Z M 16 153 " />
        </clipPath>
        <linearGradient id="topGradient"
                        x1="0%"
                        y1="0%"
                        x2="100%"
                        y2="100%">
            <stop offset="0%"
                  style="stop-color:#67C2D4;stop-opacity:1" />
            <stop offset="100%"
                  style="stop-color:#4a8a96;stop-opacity:1" />
        </linearGradient>
        <linearGradient id="bottomGradient"
                        x1="0%"
                        y1="0%"
                        x2="100%"
                        y2="100%">
            <stop offset="0%"
                  style="stop-color:#D0944D;stop-opacity:1" />
            <stop offset="100%"
                  style="stop-color:#a06935;stop-opacity:1" />
        </linearGradient>
    </defs>
    <g id="a3659b4179">
        <g clip-rule="nonzero"
           clip-path="url(#a0dfaa21af)">
            <path style=" stroke:none;fill-rule:evenodd;fill:url(#topGradient);fill-opacity:1;"
                  d="M 375.015625 28.6875 L 122.929688 28.6875 C -0.015625 28.6875 17.878906 160.515625 17.878906 160.515625 C 54.082031 97.6875 142.582031 125.699219 230.152344 125.699219 C 338.007812 125.683594 375.015625 38.835938 375.015625 28.6875 Z M 375.015625 28.6875 " />
        </g>
        <g clip-rule="nonzero"
           clip-path="url(#69a5148ed8)">
            <path style=" stroke:none;fill-rule:evenodd;fill:url(#bottomGradient);fill-opacity:1;"
                  d="M 307.699219 346.367188 L 103.011719 346.367188 C 24.417969 346.367188 16.707031 280.035156 16.96875 251.804688 C 16.753906 227.726562 22.121094 177.144531 68.90625 159.558594 C 112.40625 148.976562 171.488281 161.535156 230.136719 161.535156 C 260.632812 161.535156 285.808594 162.460938 319.746094 153.375 C 319.746094 161.949219 288.445312 235.40625 197.234375 235.40625 C 148.597656 235.40625 99.621094 225.195312 63.058594 233.234375 C 39.257812 238.460938 43.855469 266.230469 63.058594 270.070312 C 97.953125 277.058594 144.152344 267.601562 190.046875 267.601562 C 277.617188 267.601562 307.667969 338.128906 307.667969 346.367188 Z M 307.699219 346.367188 " />
        </g>
    </g>
</svg>
