<svg width="500" height="500" viewBox="0 0 500 500" fill="none" xmlns="http://www.w3.org/2000/svg">
<path d="M500 0H0V500H500V0Z" fill="white"/>
<path fill-rule="evenodd" clip-rule="evenodd" d="M250.51 199.911C222.271 199.911 199.771 222.354 199.771 250.521V353.284V456.047C215.984 460.193 232.745 461.766 250.51 461.766C367.708 461.766 462.427 367.37 462.427 250.521C462.427 133.141 367.708 38.2031 250.51 38.2031C132.807 38.2031 37.5677 133.141 37.5677 250.521C37.5677 317.792 69.4844 377.807 118.672 416.906V250.521C118.672 178 177.807 119.057 250.51 119.057C322.703 119.057 381.323 178 381.323 250.521C381.323 322.51 322.703 380.917 250.51 380.917C232.208 380.917 215.464 377.807 199.771 371.016L285.568 285.479L286.604 284.943L287.141 283.906L288.177 282.87L288.714 281.797L289.75 281.297C290.286 280.26 290.823 280.26 291.323 279.188L291.859 278.151L292.359 277.115L293.432 276.078V275.542L294.469 274.005L295.005 272.932L295.505 271.896L296.578 269.823L297.078 268.786C297.078 267.714 297.615 267.214 297.615 266.177L298.115 265.104L298.651 263.568V262.495L299.188 261.458L299.688 260.422V258.849L300.224 257.807V250.521C300.224 222.354 278.24 199.911 250.51 199.911Z" fill="#03989E"/>
</svg>
